#!OML:ASF F:\VICON\USERDATA\INSTALL\rory3\rory3.ASF
:FULLY-SPECIFIED
:DEGREES
2102
root 0.384158 16.1361 -0.152834 3.63254 -0.86174 -0.309202
lowerback 10.9833 0.320239 -1.25049
upperback -3.5763 0.183338 -0.616261
thorax -10.0273 0.143738 0.00803662
lowerneck -11.8258 -6.20285 -11.9432
upperneck 23.8332 -7.50534 5.60374
head 10.2395 -3.94137 3.02477
rclavicle -6.67171e-015 -9.14409e-015
rhumerus -32.0645 44.6324 -65.134
rradius 90.1278
rwrist -29.5285
rhand -9.36935 17.546
rfingers 7.12502
rthumb 16.5909 -11.7648
lclavicle -6.67171e-015 -9.14409e-015
lhumerus -36.6864 -21.5981 71.692
lradius 70.7057
lwrist 46.4419
lhand -4.73921 25.0052
lfingers 7.12502
lthumb 21.044 53.8834
rfemur -7.16098 12.7991 16.2601
rtibia 19.2615
rfoot -11.984 -15.4738
rtoes -5.48988
lfemur -4.66895 -9.16222 -16.7211
ltibia 13.835
lfoot -9.18835 8.23961
ltoes -9.44713
2103
root 0.382776 16.1379 -0.155571 3.65902 -0.767368 0.0896492
lowerback 10.9772 0.358552 -1.72211
upperback -3.60712 0.1251 -1.01993
thorax -10.0592 0.130513 -0.14851
lowerneck -11.7765 -6.21282 -11.9345
upperneck 23.6737 -7.52996 5.64405
head 10.1757 -3.94662 3.03443
rclavicle 1.13059e-015 -2.78299e-015
rhumerus -30.6628 45.137 -63.4854
rradius 92.0067
rwrist -29.87
rhand -9.27304 17.3031
rfingers 7.12502
rthumb 16.6836 -11.9999
lclavicle 1.13059e-015 -2.78299e-015
lhumerus -36.9277 -20.3731 71.8066
lradius 68.1238
lwrist 44.2846
lhand -4.30469 25.7056
lfingers 7.12502
lthumb 21.4613 54.5368
rfemur -7.46716 12.7312 15.8119
rtibia 19.8065
rfoot -12.1948 -15.4782
rtoes -5.5787
lfemur -4.17612 -9.19 -17.1534
ltibia 12.799
lfoot -8.77646 8.24056
ltoes -9.579
2104
root 0.384094 16.1381 -0.16065 3.68942 -0.601458 0.450362
lowerback 10.9971 0.364491 -2.10481
upperback -3.63268 0.0355522 -1.4256
thorax -10.1005 0.096639 -0.351782
lowerneck -11.8323 -6.21159 -11.8867
upperneck 23.5753 -7.53387 5.67342
head 10.1498 -3.93884 3.03453
rclavicle 9.83984e-015 -1.47101e-014
rhumerus -29.0885 45.4515 -61.7351
rradius 93.7415
rwrist -30.236
rhand -8.87309 17.2659
rfingers 7.12502
rthumb 17.0686 -12.0042
lclavicle 9.83984e-015 -1.47101e-014
lhumerus -37.1975 -19.3389 71.9157
lradius 65.4679
lwrist 42.0286
lhand -3.99572 26.6944
lfingers 7.12502
lthumb 21.7581 55.4915
rfemur -7.78153 12.5197 15.3955
rtibia 20.3556
rfoot -12.4621 -15.4173
rtoes -5.73908
lfemur -3.7519 -9.30003 -17.5399
ltibia 11.8452
lfoot -8.37992 8.24309
ltoes -9.18714
2105
root 0.382359 16.1359 -0.168213 3.76133 -0.406498 0.905007
lowerback 11.0478 0.385688 -2.61926
upperback -3.70989 -0.0588402 -1.85124
thorax -10.2185 0.0688534 -0.503055
lowerneck -11.7953 -6.20728 -11.8933
upperneck 23.4706 -7.55527 5.79059
head 10.1115 -3.93634 3.07478
rclavicle 4.08751e-015 -1.27222e-014
rhumerus -27.6912 45.6948 -60.0379
rradius 95.5351
rwrist -31.0114
rhand -8.43857 17.3497
rfingers 7.12502
rthumb 17.4868 -11.8838
lclavicle 4.08751e-015 -1.27222e-014
lhumerus -37.5392 -18.4267 71.9803
lradius 62.8994
lwrist 39.7077
lhand -3.86385 26.4122
lfingers 7.12502
lthumb 21.8847 55.1945
rfemur -8.13458 12.2706 14.886
rtibia 20.8785
rfoot -12.5754 -15.4623
rtoes -6.6095
lfemur -3.47236 -9.43625 -18.0009
ltibia 11.0574
lfoot -8.12452 8.21215
ltoes -8.70716
2106
root 0.38148 16.1316 -0.17493 3.73689 -0.175521 1.07517
lowerback 11.1577 0.391112 -2.84477
upperback -3.70483 -0.120695 -2.16138
thorax -10.2798 0.0420153 -0.699054
lowerneck -11.8092 -6.22521 -12.0174
upperneck 23.3192 -7.58677 5.96186
head 10.0752 -3.94123 3.15044
rclavicle -4.34841e-015 -2.70347e-014
rhumerus -26.2328 45.9055 -58.2018
rradius 97.4323
rwrist -31.9646
rhand -8.55834 17.1979
rfingers 7.12502
rthumb 17.3715 -12.0459
lclavicle -4.34841e-015 -2.70347e-014
lhumerus -37.7284 -17.4866 72.0459
lradius 60.3676
lwrist 37.6016
lhand -3.7592 25.3445
lfingers 7.12502
lthumb 21.9852 54.1151
rfemur -8.40806 12.0477 14.7192
rtibia 21.4641
rfoot -12.7801 -15.5183
rtoes -6.67852
lfemur -3.07757 -9.58863 -18.167
ltibia 10.2623
lfoot -7.95096 8.2102
ltoes -8.14459
2107
root 0.382131 16.1259 -0.180522 3.68298 -0.00932478 1.28009
lowerback 11.2479 0.406316 -3.04653
upperback -3.65696 -0.167603 -2.50832
thorax -10.2829 0.0187867 -0.95053
lowerneck -11.8964 -6.25683 -12.1688
upperneck 23.1899 -7.62808 6.15357
head 10.0642 -3.9496 3.23477
rclavicle 1.38031e-014 3.4191e-014
rhumerus -24.817 45.8713 -56.4523
rradius 99.3113
rwrist -32.7197
rhand -8.66945 17.0268
rfingers 7.12502
rthumb 17.2646 -12.2263
lclavicle 1.38031e-014 3.4191e-014
lhumerus -37.7974 -16.6713 72.0848
lradius 57.7836
lwrist 36.0502
lhand -3.90468 24.7862
lfingers 7.12502
lthumb 21.8455 53.5731
rfemur -8.69606 11.8262 14.4988
rtibia 22.1174
rfoot -13.1593 -15.4118
rtoes -6.13152
lfemur -2.63608 -9.54856 -18.3976
ltibia 9.44049
lfoot -7.59482 8.09377
ltoes -8.06549
2108
root 0.37961 16.1215 -0.184649 3.82188 0.106015 1.83095
lowerback 11.1605 0.451892 -3.67936
upperback -3.69587 -0.243334 -2.95022
thorax -10.2794 0.00620454 -1.05651
lowerneck -11.8738 -6.28549 -12.1484
upperneck 23.0091 -7.69996 6.2839
head 10.0061 -3.96571 3.26705
rclavicle 9.80257e-015 -1.74931e-014
rhumerus -23.4575 45.8022 -54.7944
rradius 101.148
rwrist -33.7029
rhand -8.42843 16.9062
rfingers 7.12502
rthumb 17.4966 -12.3264
lclavicle 9.80257e-015 -1.74931e-014
lhumerus -37.8101 -15.6233 71.9127
lradius 55.0578
lwrist 34.4927
lhand -4.26288 23.435
lfingers 7.12502
lthumb 21.5015 52.2616
rfemur -9.18512 11.4753 13.8415
rtibia 22.7594
rfoot -13.5176 -15.1759
rtoes -5.75717
lfemur -2.46596 -9.47791 -18.9837
ltibia 8.76874
lfoot -7.22914 8.01694
ltoes -8.1171
2109
root 0.375613 16.116 -0.190017 4.00606 0.302529 2.38206
lowerback 11.0733 0.463104 -4.3412
upperback -3.75763 -0.366721 -3.362
thorax -10.3013 -0.0257182 -1.1059
lowerneck -11.7366 -6.28052 -11.9858
upperneck 22.7189 -7.72676 6.26371
head 9.87005 -3.96611 3.23061
rclavicle -7.0817e-015 -2.54444e-014
rhumerus -21.9796 45.7757 -53.0079
rradius 102.977
rwrist -34.9381
rhand -8.11544 16.577
rfingers 7.12502
rthumb 17.7978 -12.6286
lclavicle -7.0817e-015 -2.54444e-014
lhumerus -37.9745 -14.363 71.695
lradius 52.517
lwrist 33.3258
lhand -5.38683 20.4182
lfingers 7.12502
lthumb 20.4217 49.3643
rfemur -9.72839 11.0812 13.1954
rtibia 23.4606
rfoot -13.7878 -15.0465
rtoes -6.03556
lfemur -2.37748 -9.49047 -19.5506
ltibia 8.14486
lfoot -6.86716 7.93028
ltoes -8.05581
2110
root 0.371783 16.1102 -0.194813 4.1065 0.542297 2.70959
lowerback 11.0257 0.447063 -4.75646
upperback -3.75178 -0.480824 -3.70707
thorax -10.2705 -0.0674902 -1.22309
lowerneck -11.7399 -6.28044 -11.9067
upperneck 22.5161 -7.74333 6.30487
head 9.79772 -3.96061 3.2284
rclavicle 6.93262e-015 1.59028e-015
rhumerus -20.53 45.6351 -51.2201
rradius 104.799
rwrist -35.9273
rhand -7.92983 16.493
rfingers 7.12502
rthumb 17.9764 -12.6962
lclavicle 6.93262e-015 1.59028e-015
lhumerus -38.2684 -13.3889 71.5768
lradius 50.2556
lwrist 32.6546
lhand -5.01168 21.7505
lfingers 7.12502
lthumb 20.7822 50.6576
rfemur -10.2078 10.7192 12.8326
rtibia 24.2244
rfoot -14.085 -14.9649
rtoes -6.50481
lfemur -2.23516 -9.53166 -19.8702
ltibia 7.57654
lfoot -6.52823 7.82547
ltoes -8.20592
